HIERARCHY
ROOT joint_Root
{
	OFFSET 0.0 0.0 0.0
	CHANNELS 6 Xposition Yposition Zposition Zrotation Xrotation Yrotation 
	JOINT Hips
	{
		OFFSET -0.726466 93.3139 -2.00062
		CHANNELS 6 Xposition Yposition Zposition Zrotation Xrotation Yrotation 
		JOINT Spine
		{
			OFFSET 15.7357 0.0 0.0
			CHANNELS 6 Xposition Yposition Zposition Zrotation Xrotation Yrotation 
			JOINT Chest
			{
				OFFSET 8.98455 -0.406207 0.0
				CHANNELS 6 Xposition Yposition Zposition Zrotation Xrotation Yrotation 
				JOINT Neck
				{
					OFFSET 16.3773 0.0 0.0
					CHANNELS 6 Xposition Yposition Zposition Zrotation Xrotation Yrotation 
					JOINT Head
					{
						OFFSET 6.45672 0.0 0.0
						CHANNELS 6 Xposition Yposition Zposition Zrotation Xrotation Yrotation 
						End Site
						{
							OFFSET 0.0 0.0 0.0
						}
					}
				}
				JOINT Shoulder_L
				{
					OFFSET 12.9942 -0.242716 4.98039
					CHANNELS 6 Xposition Yposition Zposition Zrotation Xrotation Yrotation 
					JOINT UpperArm_L
					{
						OFFSET 5.34809 0.0 0.0
						CHANNELS 6 Xposition Yposition Zposition Zrotation Xrotation Yrotation 
						JOINT LowerArm_L
						{
							OFFSET 24.3286 1.87007e-05 0.0
							CHANNELS 6 Xposition Yposition Zposition Zrotation Xrotation Yrotation 
							JOINT Hand_L
							{
								OFFSET 22.2916 0.0 0.0
								CHANNELS 6 Xposition Yposition Zposition Zrotation Xrotation Yrotation 
								End Site
								{
									OFFSET 0.0 0.0 0.0
								}
							}
						}
					}
				}
				JOINT Shoulder_R
				{
					OFFSET 12.9945 -0.242716 -4.98039
					CHANNELS 6 Xposition Yposition Zposition Zrotation Xrotation Yrotation 
					JOINT UpperArm_R
					{
						OFFSET -5.34813 0.0 0.0
						CHANNELS 6 Xposition Yposition Zposition Zrotation Xrotation Yrotation 
						JOINT LowerArm_R
						{
							OFFSET -24.3289 0.000322201 0.0
							CHANNELS 6 Xposition Yposition Zposition Zrotation Xrotation Yrotation 
							JOINT Hand_R
							{
								OFFSET -22.2915 -0.000108084 0.0
								CHANNELS 6 Xposition Yposition Zposition Zrotation Xrotation Yrotation 
								End Site
								{
									OFFSET 0.0 0.0 0.0
								}
							}
						}
					}
				}
			}
		}
		JOINT UpperLeg_L
		{
			OFFSET -2.19248 -6.46944 0.0
			CHANNELS 6 Xposition Yposition Zposition Zrotation Xrotation Yrotation 
			JOINT LowerLeg_L
			{
				OFFSET 39.0811 0.0 -1.23785e-05
				CHANNELS 6 Xposition Yposition Zposition Zrotation Xrotation Yrotation 
				JOINT Foot_L
				{
					OFFSET 40.9854 0.0 -1.26872e-05
					CHANNELS 6 Xposition Yposition Zposition Zrotation Xrotation Yrotation 
					JOINT Toes_L
					{
						OFFSET 11.7543 0.0 0.0
						CHANNELS 6 Xposition Yposition Zposition Zrotation Xrotation Yrotation 
						End Site
						{
							OFFSET 0.0 0.0 0.0
						}
					}
				}
			}
		}
		JOINT UpperLeg_R
		{
			OFFSET -2.19251 6.46944 0.0
			CHANNELS 6 Xposition Yposition Zposition Zrotation Xrotation Yrotation 
			JOINT LowerLeg_R
			{
				OFFSET -39.0811 -0.00228153 -0.0401928
				CHANNELS 6 Xposition Yposition Zposition Zrotation Xrotation Yrotation 
				JOINT Foot_R
				{
					OFFSET -40.9854 0.0 0.0
					CHANNELS 6 Xposition Yposition Zposition Zrotation Xrotation Yrotation 
					JOINT Toes_R
					{
						OFFSET -11.7543 0.0 0.0
						CHANNELS 6 Xposition Yposition Zposition Zrotation Xrotation Yrotation 
						End Site
						{
							OFFSET 0.0 0.0 0.0
						}
					}
				}
			}
		}
	}
}
MOTION
Frames:	4
Frame Time:	0.0333333
0.000000 0.000000 0.000000 0.000000 0.000000 -0.000000 -1.031320 92.290400 -0.320136 88.300600 0.543915 4.247010 15.735700 0.000005 -0.000001 83.015100 85.312400 -82.441100 8.984550 -0.406207 -0.000000 1.546120 -1.170650 1.162730 16.377300 -0.000001 -0.000001 1.352150 -2.811790 0.157433 6.456720 -0.000001 -0.000000 3.199750 -3.174460 -1.347840 12.994200 -0.242716 4.980390 -90.075700 0.243815 -72.747000 5.348090 -0.000007 -0.000001 -67.618600 39.857000 -15.253400 24.328600 0.000019 0.000005 2.043990 5.137820 -21.728500 22.291600 -0.000001 0.000005 2.285990 5.476180 -5.595170 12.994500 -0.242716 -4.980390 88.225400 5.670820 -72.591400 -5.348130 -0.000001 -0.000004 -66.029600 39.831200 -15.519100 -24.328900 0.000322 -0.000009 2.251610 8.036880 -15.714100 -22.291500 -0.000108 -0.000004 6.444700 5.376110 -2.174420 -2.192480 -6.469440 -0.000000 -175.226000 -8.105380 -2.423870 39.081100 -0.000007 -0.000012 -0.113731 0.271403 22.736200 40.985400 -0.000006 -0.000013 -0.234429 4.766420 -66.221700 11.754300 -0.000000 0.000003 -0.000048 -0.000550 -16.598900 -2.192510 6.469440 -0.000001 179.501000 15.844000 -179.338000 -39.081100 -0.002282 -0.040193 -0.057637 0.175198 19.185100 -40.985400 0.000008 0.000006 2.816710 7.392930 -65.960600 -11.754300 -0.000006 -0.000006 -0.008544 -0.092419 -20.337000
0.000000 0.000000 0.000000 0.000000 0.000000 -0.000000 -1.008830 92.289100 -0.346815 88.300700 0.726259 4.389790 15.735700 0.000005 -0.000001 83.015200 85.274500 -82.454500 8.984550 -0.406207 -0.000000 1.621150 -1.178710 1.137090 16.377300 -0.000001 -0.000001 1.229100 -2.874330 0.187385 6.456720 -0.000001 -0.000000 3.254160 -3.205130 -1.340170 12.994200 -0.242716 4.980390 -90.162200 0.526626 -72.877400 5.348090 -0.000007 -0.000001 -65.149500 39.667700 -17.220800 24.328600 0.000019 0.000005 3.265050 7.876970 -22.596200 22.291600 -0.000001 0.000005 -1.524390 5.451080 -4.661370 12.994500 -0.242716 -4.980390 88.293000 5.483410 -72.679000 -5.348130 -0.000001 -0.000004 -64.950200 40.436800 -16.485700 -24.328900 0.000322 -0.000009 2.620350 8.727480 -16.789000 -22.291500 -0.000108 -0.000004 3.014080 5.338370 -1.001350 -2.192480 -6.469440 -0.000000 -175.235000 -7.991310 -2.336440 39.081100 -0.000007 -0.000012 -0.112093 0.267041 22.770700 40.985400 -0.000006 -0.000013 -0.195910 4.837330 -66.216400 11.754300 -0.000000 0.000003 -0.000062 -0.000678 -16.603800 -2.192510 6.469440 -0.000001 179.451000 16.032000 -179.211000 -39.081100 -0.002282 -0.040193 -0.054849 0.166758 19.230700 -40.985400 0.000008 0.000006 2.947060 7.339820 -66.002600 -11.754300 -0.000006 -0.000006 -0.008580 -0.092704 -20.348700
0.000000 0.000000 0.000000 0.000000 0.000000 -0.000000 -1.002800 92.281900 -0.430648 88.316600 0.994068 4.567060 15.735700 0.000005 -0.000001 82.927300 85.214600 -82.411100 8.984550 -0.406207 -0.000000 1.737920 -1.204900 1.049770 16.377300 -0.000001 -0.000001 1.188610 -2.959420 0.226941 6.456720 -0.000001 -0.000000 3.224840 -3.336540 -1.173480 12.994200 -0.242716 4.980390 -90.221000 0.719553 -72.928600 5.348090 -0.000007 -0.000001 -61.342400 38.342700 -20.602200 24.328600 0.000019 0.000005 4.810690 10.608100 -24.564100 22.291600 -0.000001 0.000005 -5.161110 5.421310 -3.634600 12.994500 -0.242716 -4.980390 88.290200 5.472310 -72.619500 -5.348130 -0.000001 -0.000004 -62.289500 40.240400 -18.800000 -24.328900 0.000322 -0.000009 3.854260 10.966600 -19.498700 -22.291500 -0.000108 -0.000004 -5.436580 5.259990 1.262160 -2.192480 -6.469440 -0.000000 -175.233000 -7.893880 -2.310320 39.081100 -0.000007 -0.000012 -0.113427 0.268860 22.874200 40.985400 -0.000006 -0.000013 -0.151122 5.008840 -66.186400 11.754300 -0.000000 0.000003 -0.000056 -0.000626 -16.601800 -2.192510 6.469440 -0.000001 179.382000 16.217800 -179.122000 -39.081100 -0.002282 -0.040193 -0.055618 0.167947 19.338500 -40.985400 0.000008 0.000006 2.897730 7.247850 -66.006600 -11.754300 -0.000006 -0.000006 -0.008544 -0.092415 -20.336900
0.000000 0.000000 0.000000 0.000000 0.000000 -0.000000 -0.991422 92.287100 -0.587870 88.341700 1.172840 4.785100 15.735700 0.000005 -0.000001 82.677000 85.162100 -82.187100 8.984550 -0.406207 -0.000000 1.836850 -1.257900 0.999014 16.377300 -0.000001 -0.000001 1.413130 -2.947790 0.158650 6.456720 -0.000001 -0.000000 3.105130 -3.408160 -0.981908 12.994200 -0.242716 4.980390 -90.168800 0.549882 -72.938700 5.348090 -0.000007 -0.000001 -57.956400 34.284200 -24.151400 24.328600 0.000019 0.000005 6.289080 11.940400 -28.039500 22.291600 -0.000001 0.000005 -6.210220 5.392910 -2.710350 12.994500 -0.242716 -4.980390 88.288400 5.377610 -72.315700 -5.348130 -0.000001 -0.000004 -58.095500 38.295000 -22.810900 -24.328900 0.000322 -0.000009 5.969080 13.513100 -24.104600 -22.291500 -0.000108 -0.000004 -16.211000 5.158970 3.806560 -2.192480 -6.469440 -0.000000 -175.247000 -7.902200 -2.249720 39.081100 -0.000007 -0.000012 -0.111546 0.263826 22.918700 40.985400 -0.000006 -0.000013 -0.093328 5.182470 -66.084800 11.754300 -0.000000 0.000003 -0.000060 -0.000661 -16.603200 -2.192510 6.469440 -0.000001 179.326000 16.307800 -179.042000 -39.081100 -0.002282 -0.040193 -0.052527 0.158277 19.436000 -40.985400 0.000008 0.000006 2.962820 7.152960 -65.971600 -11.754300 -0.000006 -0.000006 -0.008631 -0.093106 -20.365100
